<?xml version="1.0" encoding="UTF-8" standalone="no"?>
<svg
   xmlns:dc="http://purl.org/dc/elements/1.1/"
   xmlns:cc="http://creativecommons.org/ns#"
   xmlns:rdf="http://www.w3.org/1999/02/22-rdf-syntax-ns#"
   xmlns:svg="http://www.w3.org/2000/svg"
   xmlns="http://www.w3.org/2000/svg"
   version="1.1"
   id="svg2"
   viewBox="0 0 395.27613 486.32041"
   height="137.25043mm"
   width="111.55572mm">
  <defs
     id="defs4">
    <filter
       height="1.0411559"
       y="-0.020577965"
       width="1.05112"
       x="-0.025560001"
       id="filter4276"
       style="color-interpolation-filters:sRGB">
      <feGaussianBlur
         id="feGaussianBlur4278"
         stdDeviation="4.047" />
    </filter>
  </defs>
  <metadata
     id="metadata7">
    <rdf:RDF>
      <cc:Work
         rdf:about="">
        <dc:format>image/svg+xml</dc:format>
        <dc:type
           rdf:resource="http://purl.org/dc/dcmitype/StillImage" />
        <dc:title></dc:title>
      </cc:Work>
    </rdf:RDF>
  </metadata>
  <g
     transform="translate(590.49518,-146.05915)"
     id="layer1">
    <g
       id="g4505">
      <path
         id="path4194"
         d="m -578.81651,167.21935 62.48985,0 30.48985,-14 32.48984,14 60.48985,0 46.48985,0 46.48984,0 46.48985,0 46.48985,0 c 2.2385,0 4.04061,1.80211 4.04061,4.04061 l 0,449.91877 c 0,2.2385 -1.80211,4.04062 -4.04061,4.04062 l -371.91878,0 c -2.23849,0 -4.04061,-1.80212 -4.04061,-4.04062 l 0,-449.91877 c 0,-2.2385 1.80327,-4.11222 4.04061,-4.04061 z"
         style="opacity:1;fill:#838383;fill-opacity:0.83236994;stroke:none;stroke-width:0.69999999;stroke-linecap:round;stroke-linejoin:round;stroke-miterlimit:4;stroke-dasharray:none;stroke-dashoffset:0;stroke-opacity:1;filter:url(#filter4276)"
         transform="matrix(0.98961146,0,0,0.98961146,-4.0812134,4.0434224)" />
      <path
         id="path4139"
         d="m -577.81527,168.32857 62.15339,0 29.95846,-13.83856 32.44458,13.83856 60.40172,0 46.23954,0 46.23954,0 46.23953,0 46.23954,0 c 2.22645,0 4.01885,1.79241 4.01885,4.01886 l 0,447.58239 c 0,2.22644 -1.7924,4.01887 -4.01885,4.01887 l -369.9163,0 c -2.22644,0 -4.01885,-1.79243 -4.01885,-4.01887 l 0,-447.58239 c 0,-2.22645 1.79241,-4.01886 4.01885,-4.01886 z"
         style="opacity:1;fill:#ffffff;fill-opacity:1;stroke:none;stroke-width:0.69999999;stroke-linecap:round;stroke-linejoin:round;stroke-miterlimit:4;stroke-dasharray:none;stroke-dashoffset:0;stroke-opacity:1" />
      <path
         style="opacity:1;fill:#ffffff;fill-opacity:1;stroke:none;stroke-width:0.69999999;stroke-linecap:round;stroke-linejoin:round;stroke-miterlimit:4;stroke-dasharray:none;stroke-dashoffset:0;stroke-opacity:1"
         d="m -577.81527,168.32857 62.15339,0 29.95846,-13.83856 32.44458,13.83856 60.40172,0 46.23954,0 46.23954,0 46.23953,0 46.23954,0 c 2.22645,0 4.01885,1.79241 4.01885,4.01886 l 0,447.58239 c 0,2.22644 -1.7924,4.01887 -4.01885,4.01887 l -369.9163,0 c -2.22644,0 -4.01885,-1.79243 -4.01885,-4.01887 l 0,-447.58239 c 0,-2.22645 1.79241,-4.01886 4.01885,-4.01886 z"
         id="path4290" />
    </g>
  </g>
</svg>
